<svg xmlns="http://www.w3.org/2000/svg" xmlns:xlink="http://www.w3.org/1999/xlink" version="1.1" x="0px" y="0px" viewBox="0 0 100 125" style="enable-background:new 0 0 100 100;" xml:space="preserve"><style type="text/css">
	.st0{fill:#010101;}
</style><g><g><path class="st0" d="M50,5C25.1,5,5,25.1,5,50s20.1,45,45,45s45-20.1,45-45C95,25.1,74.9,5,50,5z M51.4,76.4L51.4,76.4    c-0.8,0.8-2,0.8-2.8,0l0,0l-32-32c-0.6-0.6-0.6-1.6-0.2-2.3c0,0,1.5-3.1,4.5-6.1c3-3,6.1-4.5,6.1-4.5c0.7-0.4,1.7-0.4,2.3,0.2    L50,52.3l20.7-20.7c0.6-0.6,1.6-0.6,2.3-0.2c0,0,3.1,1.5,6.1,4.5c3,3,4.5,6.1,4.5,6.1c0.4,0.7,0.4,1.7-0.2,2.3L51.4,76.4z"/></g></g><text x="0" y="115" fill="#000000" font-size="5px" font-weight="bold" font-family="'Helvetica Neue', Helvetica, Arial-Unicode, Arial, Sans-serif">Created by Bradley Avison</text><text x="0" y="120" fill="#000000" font-size="5px" font-weight="bold" font-family="'Helvetica Neue', Helvetica, Arial-Unicode, Arial, Sans-serif">from the Noun Project</text></svg>